<mxfile host="app.diagrams.net" modified="2023-08-06T10:56:01.505Z" agent="Mozilla/5.0 (Windows NT 10.0; Win64; x64) AppleWebKit/537.36 (KHTML, like Gecko) Chrome/115.0.0.0 Safari/537.36" etag="4rNU9m8Rg2Dx3GawMrbi" version="21.6.6" type="device">
  <diagram name="Page-1" id="2aieArdZYKRfZxzyZ9-g">
    <mxGraphModel dx="1272" dy="506" grid="1" gridSize="10" guides="1" tooltips="1" connect="1" arrows="1" fold="1" page="1" pageScale="1" pageWidth="850" pageHeight="1100" math="0" shadow="0">
      <root>
        <mxCell id="0" />
        <mxCell id="1" parent="0" />
        <mxCell id="xdZJumA4zvzaIMP4X4uw-14" value="" style="rounded=1;whiteSpace=wrap;html=1;" vertex="1" parent="1">
          <mxGeometry x="70" y="60" width="480" height="340" as="geometry" />
        </mxCell>
        <mxCell id="xdZJumA4zvzaIMP4X4uw-7" style="edgeStyle=orthogonalEdgeStyle;rounded=0;orthogonalLoop=1;jettySize=auto;html=1;entryX=0;entryY=0.5;entryDx=0;entryDy=0;" edge="1" parent="1" source="xdZJumA4zvzaIMP4X4uw-1" target="xdZJumA4zvzaIMP4X4uw-6">
          <mxGeometry relative="1" as="geometry" />
        </mxCell>
        <mxCell id="xdZJumA4zvzaIMP4X4uw-1" value="&lt;font style=&quot;font-size: 14px;&quot;&gt;Bed 1&lt;/font&gt;" style="rounded=1;whiteSpace=wrap;html=1;" vertex="1" parent="1">
          <mxGeometry x="120" y="130" width="120" height="30" as="geometry" />
        </mxCell>
        <mxCell id="xdZJumA4zvzaIMP4X4uw-8" style="edgeStyle=orthogonalEdgeStyle;rounded=0;orthogonalLoop=1;jettySize=auto;html=1;entryX=0;entryY=0.5;entryDx=0;entryDy=0;" edge="1" parent="1" source="xdZJumA4zvzaIMP4X4uw-2" target="xdZJumA4zvzaIMP4X4uw-6">
          <mxGeometry relative="1" as="geometry" />
        </mxCell>
        <mxCell id="xdZJumA4zvzaIMP4X4uw-2" value="&lt;font style=&quot;font-size: 14px;&quot;&gt;Bed 2&lt;/font&gt;" style="rounded=1;whiteSpace=wrap;html=1;" vertex="1" parent="1">
          <mxGeometry x="120" y="180" width="120" height="30" as="geometry" />
        </mxCell>
        <mxCell id="xdZJumA4zvzaIMP4X4uw-9" style="edgeStyle=orthogonalEdgeStyle;rounded=0;orthogonalLoop=1;jettySize=auto;html=1;entryX=0;entryY=0.5;entryDx=0;entryDy=0;" edge="1" parent="1" source="xdZJumA4zvzaIMP4X4uw-3" target="xdZJumA4zvzaIMP4X4uw-6">
          <mxGeometry relative="1" as="geometry" />
        </mxCell>
        <mxCell id="xdZJumA4zvzaIMP4X4uw-3" value="&lt;font style=&quot;font-size: 14px;&quot;&gt;Bed 3&lt;/font&gt;" style="rounded=1;whiteSpace=wrap;html=1;" vertex="1" parent="1">
          <mxGeometry x="120" y="230" width="120" height="30" as="geometry" />
        </mxCell>
        <mxCell id="xdZJumA4zvzaIMP4X4uw-10" style="edgeStyle=orthogonalEdgeStyle;rounded=0;orthogonalLoop=1;jettySize=auto;html=1;entryX=0;entryY=0.5;entryDx=0;entryDy=0;" edge="1" parent="1" source="xdZJumA4zvzaIMP4X4uw-4" target="xdZJumA4zvzaIMP4X4uw-6">
          <mxGeometry relative="1" as="geometry" />
        </mxCell>
        <mxCell id="xdZJumA4zvzaIMP4X4uw-4" value="&lt;font style=&quot;font-size: 14px;&quot;&gt;Bed 4&lt;/font&gt;" style="rounded=1;whiteSpace=wrap;html=1;" vertex="1" parent="1">
          <mxGeometry x="120" y="280" width="120" height="30" as="geometry" />
        </mxCell>
        <mxCell id="xdZJumA4zvzaIMP4X4uw-11" style="edgeStyle=orthogonalEdgeStyle;rounded=0;orthogonalLoop=1;jettySize=auto;html=1;entryX=0;entryY=0.5;entryDx=0;entryDy=0;" edge="1" parent="1" source="xdZJumA4zvzaIMP4X4uw-5" target="xdZJumA4zvzaIMP4X4uw-6">
          <mxGeometry relative="1" as="geometry" />
        </mxCell>
        <mxCell id="xdZJumA4zvzaIMP4X4uw-5" value="&lt;font style=&quot;font-size: 14px;&quot;&gt;Bed 5&lt;/font&gt;" style="rounded=1;whiteSpace=wrap;html=1;" vertex="1" parent="1">
          <mxGeometry x="120" y="330" width="120" height="30" as="geometry" />
        </mxCell>
        <mxCell id="xdZJumA4zvzaIMP4X4uw-6" value="&lt;font style=&quot;font-size: 18px;&quot;&gt;MQTT Server&lt;br&gt;(Publisher)&lt;/font&gt;&lt;br&gt;&lt;br&gt;&lt;div style=&quot;&quot;&gt;&lt;span style=&quot;background-color: initial;&quot;&gt;&lt;font style=&quot;font-size: 14px;&quot;&gt;Fetch data from beds/patients and create tokenize data and pass to Subscriber&lt;/font&gt;&lt;/span&gt;&lt;/div&gt;" style="rounded=1;whiteSpace=wrap;html=1;" vertex="1" parent="1">
          <mxGeometry x="320" y="180" width="190" height="130" as="geometry" />
        </mxCell>
        <mxCell id="xdZJumA4zvzaIMP4X4uw-15" value="&lt;b&gt;&lt;font style=&quot;font-size: 18px;&quot;&gt;Server&lt;/font&gt;&lt;/b&gt;" style="text;html=1;strokeColor=none;fillColor=none;align=center;verticalAlign=middle;whiteSpace=wrap;rounded=0;" vertex="1" parent="1">
          <mxGeometry x="280" y="70" width="60" height="30" as="geometry" />
        </mxCell>
        <mxCell id="xdZJumA4zvzaIMP4X4uw-16" value="" style="endArrow=none;html=1;rounded=0;exitX=1;exitY=0.147;exitDx=0;exitDy=0;exitPerimeter=0;entryX=0.002;entryY=0.144;entryDx=0;entryDy=0;entryPerimeter=0;" edge="1" parent="1" source="xdZJumA4zvzaIMP4X4uw-14" target="xdZJumA4zvzaIMP4X4uw-14">
          <mxGeometry width="50" height="50" relative="1" as="geometry">
            <mxPoint x="250" y="150" as="sourcePoint" />
            <mxPoint x="60" y="118" as="targetPoint" />
            <Array as="points">
              <mxPoint x="310" y="110" />
            </Array>
          </mxGeometry>
        </mxCell>
        <mxCell id="xdZJumA4zvzaIMP4X4uw-19" value="" style="rounded=1;whiteSpace=wrap;html=1;" vertex="1" parent="1">
          <mxGeometry x="70" y="430" width="480" height="340" as="geometry" />
        </mxCell>
        <mxCell id="xdZJumA4zvzaIMP4X4uw-20" value="&lt;b&gt;&lt;font style=&quot;font-size: 18px;&quot;&gt;Client&lt;/font&gt;&lt;/b&gt;" style="text;html=1;strokeColor=none;fillColor=none;align=center;verticalAlign=middle;whiteSpace=wrap;rounded=0;" vertex="1" parent="1">
          <mxGeometry x="280" y="440" width="60" height="30" as="geometry" />
        </mxCell>
        <mxCell id="xdZJumA4zvzaIMP4X4uw-21" value="" style="endArrow=none;html=1;rounded=0;exitX=1;exitY=0.147;exitDx=0;exitDy=0;exitPerimeter=0;entryX=0.002;entryY=0.144;entryDx=0;entryDy=0;entryPerimeter=0;" edge="1" parent="1">
          <mxGeometry width="50" height="50" relative="1" as="geometry">
            <mxPoint x="549" y="481" as="sourcePoint" />
            <mxPoint x="70" y="480" as="targetPoint" />
            <Array as="points">
              <mxPoint x="309" y="481" />
            </Array>
          </mxGeometry>
        </mxCell>
        <mxCell id="xdZJumA4zvzaIMP4X4uw-25" style="edgeStyle=orthogonalEdgeStyle;rounded=0;orthogonalLoop=1;jettySize=auto;html=1;" edge="1" parent="1" source="xdZJumA4zvzaIMP4X4uw-22" target="xdZJumA4zvzaIMP4X4uw-23">
          <mxGeometry relative="1" as="geometry" />
        </mxCell>
        <mxCell id="xdZJumA4zvzaIMP4X4uw-22" value="&lt;font style=&quot;font-size: 14px;&quot;&gt;Fetch MQTT tokenized data through Subscribe&amp;nbsp;&amp;nbsp;&lt;/font&gt;" style="rounded=1;whiteSpace=wrap;html=1;" vertex="1" parent="1">
          <mxGeometry x="100" y="510" width="120" height="90" as="geometry" />
        </mxCell>
        <mxCell id="xdZJumA4zvzaIMP4X4uw-26" style="edgeStyle=orthogonalEdgeStyle;rounded=0;orthogonalLoop=1;jettySize=auto;html=1;entryX=0;entryY=0.5;entryDx=0;entryDy=0;" edge="1" parent="1" source="xdZJumA4zvzaIMP4X4uw-23" target="xdZJumA4zvzaIMP4X4uw-24">
          <mxGeometry relative="1" as="geometry" />
        </mxCell>
        <mxCell id="xdZJumA4zvzaIMP4X4uw-23" value="&lt;font style=&quot;font-size: 14px;&quot;&gt;Vectorize data to beds and vitals data&lt;/font&gt;" style="rounded=1;whiteSpace=wrap;html=1;" vertex="1" parent="1">
          <mxGeometry x="250" y="510" width="120" height="90" as="geometry" />
        </mxCell>
        <mxCell id="xdZJumA4zvzaIMP4X4uw-28" style="edgeStyle=orthogonalEdgeStyle;rounded=0;orthogonalLoop=1;jettySize=auto;html=1;" edge="1" parent="1" source="xdZJumA4zvzaIMP4X4uw-24" target="xdZJumA4zvzaIMP4X4uw-27">
          <mxGeometry relative="1" as="geometry">
            <Array as="points">
              <mxPoint x="460" y="610" />
              <mxPoint x="310" y="610" />
            </Array>
          </mxGeometry>
        </mxCell>
        <mxCell id="xdZJumA4zvzaIMP4X4uw-24" value="&lt;font style=&quot;font-size: 14px;&quot;&gt;Convert ranged values to bits&lt;/font&gt;" style="rounded=1;whiteSpace=wrap;html=1;" vertex="1" parent="1">
          <mxGeometry x="400" y="510" width="120" height="90" as="geometry" />
        </mxCell>
        <mxCell id="xdZJumA4zvzaIMP4X4uw-27" value="&lt;font style=&quot;font-size: 14px;&quot;&gt;Store in vital file (binary file)&lt;/font&gt;" style="shape=cylinder3;whiteSpace=wrap;html=1;boundedLbl=1;backgroundOutline=1;size=15;" vertex="1" parent="1">
          <mxGeometry x="260" y="650" width="100" height="90" as="geometry" />
        </mxCell>
      </root>
    </mxGraphModel>
  </diagram>
</mxfile>
